G04 EAGLE Gerber RS-274X export*
G75*
%MOMM*%
%FSLAX34Y34*%
%LPD*%
%INSoldermask Bottom*%
%IPPOS*%
%AMOC8*
5,1,8,0,0,1.08239X$1,22.5*%
G01*
%ADD10C,3.203194*%
%ADD11C,2.082800*%
%ADD12C,1.879600*%
%ADD13C,2.743200*%
%ADD14C,2.774800*%
%ADD15C,4.203600*%
%ADD16P,1.038661X8X22.500000*%


D10*
X920750Y323850D03*
X920750Y882650D03*
X374650Y323850D03*
X374650Y882650D03*
D11*
X863600Y850900D03*
X838200Y850900D03*
X812800Y850900D03*
X787400Y850900D03*
X762000Y850900D03*
X736600Y850900D03*
X711200Y850900D03*
X685800Y850900D03*
X660400Y850900D03*
X635000Y850900D03*
X609600Y850900D03*
X584200Y850900D03*
X584200Y698500D03*
X609600Y698500D03*
X635000Y698500D03*
X660400Y698500D03*
X685800Y698500D03*
X711200Y698500D03*
X736600Y698500D03*
X762000Y698500D03*
X787400Y698500D03*
X812800Y698500D03*
X838200Y698500D03*
X863600Y698500D03*
D12*
X478282Y812800D02*
X461518Y812800D01*
X461518Y774700D02*
X478282Y774700D01*
X478282Y736600D02*
X461518Y736600D01*
D13*
X431800Y622300D03*
X495300Y647700D03*
D14*
X419100Y596900D03*
X520700Y596900D03*
D15*
X469900Y596900D03*
D13*
X609600Y622300D03*
X673100Y647700D03*
D14*
X596900Y596900D03*
X698500Y596900D03*
D15*
X647700Y596900D03*
D13*
X787400Y622300D03*
X850900Y647700D03*
D14*
X774700Y596900D03*
X876300Y596900D03*
D15*
X825500Y596900D03*
D13*
X431800Y444500D03*
X495300Y469900D03*
D14*
X419100Y419100D03*
X520700Y419100D03*
D15*
X469900Y419100D03*
D13*
X609600Y444500D03*
X673100Y469900D03*
D14*
X596900Y419100D03*
X698500Y419100D03*
D15*
X647700Y419100D03*
D13*
X787400Y444500D03*
X850900Y469900D03*
D14*
X774700Y419100D03*
X876300Y419100D03*
D15*
X825500Y419100D03*
D16*
X558800Y635000D03*
X584200Y800100D03*
X647700Y787400D03*
X533400Y774700D03*
M02*
