G04 EAGLE Gerber RS-274X export*
G75*
%MOMM*%
%FSLAX34Y34*%
%LPD*%
%INTop Copper*%
%IPPOS*%
%AMOC8*
5,1,8,0,0,1.08239X$1,22.5*%
G01*
%ADD10C,1.879600*%
%ADD11C,1.676400*%
%ADD12C,2.540000*%
%ADD13C,2.571600*%
%ADD14C,0.203200*%
%ADD15P,0.818720X8X22.500000*%


D10*
X863600Y850900D03*
X838200Y850900D03*
X812800Y850900D03*
X787400Y850900D03*
X762000Y850900D03*
X736600Y850900D03*
X711200Y850900D03*
X685800Y850900D03*
X660400Y850900D03*
X635000Y850900D03*
X609600Y850900D03*
X584200Y850900D03*
X584200Y698500D03*
X609600Y698500D03*
X635000Y698500D03*
X660400Y698500D03*
X685800Y698500D03*
X711200Y698500D03*
X736600Y698500D03*
X762000Y698500D03*
X787400Y698500D03*
X812800Y698500D03*
X838200Y698500D03*
X863600Y698500D03*
D11*
X478282Y812800D02*
X461518Y812800D01*
X461518Y774700D02*
X478282Y774700D01*
X478282Y736600D02*
X461518Y736600D01*
D12*
X431800Y622300D03*
X495300Y647700D03*
D13*
X419100Y596900D03*
X520700Y596900D03*
D12*
X609600Y622300D03*
X673100Y647700D03*
D13*
X596900Y596900D03*
X698500Y596900D03*
D12*
X787400Y622300D03*
X850900Y647700D03*
D13*
X774700Y596900D03*
X876300Y596900D03*
D12*
X431800Y444500D03*
X495300Y469900D03*
D13*
X419100Y419100D03*
X520700Y419100D03*
D12*
X609600Y444500D03*
X673100Y469900D03*
D13*
X596900Y419100D03*
X698500Y419100D03*
D12*
X787400Y444500D03*
X850900Y469900D03*
D13*
X774700Y419100D03*
X876300Y419100D03*
D14*
X850900Y469900D02*
X850900Y578208D01*
X856678Y583986D01*
X856678Y609814D01*
X850900Y615592D01*
X850900Y647700D01*
X685800Y482600D02*
X673100Y469900D01*
X685800Y482600D02*
X685800Y587824D01*
X683102Y590522D01*
X683102Y603278D01*
X685800Y605976D01*
X685800Y609600D01*
X689424Y609600D01*
X692122Y612298D01*
X698500Y612298D01*
X673100Y469900D02*
X495300Y469900D01*
X673100Y647700D02*
X698500Y622300D01*
X698500Y612298D01*
X673100Y647700D02*
X495300Y647700D01*
X520700Y673100D01*
X520700Y787400D02*
X495300Y812800D01*
X469900Y812800D01*
X778547Y635000D02*
X781087Y637540D01*
X828952Y637540D02*
X850900Y615592D01*
X828952Y637540D02*
X781087Y637540D01*
X711200Y635000D02*
X698500Y622300D01*
X711200Y635000D02*
X778547Y635000D01*
X850900Y647700D02*
X850900Y673100D01*
X838200Y685800D01*
X838200Y698500D01*
X520700Y673100D02*
X520700Y787400D01*
X558800Y571500D02*
X431800Y444500D01*
X558800Y571500D02*
X558800Y635000D01*
D15*
X558800Y635000D03*
X584200Y800100D03*
D14*
X584200Y850900D01*
D15*
X647700Y787400D03*
D14*
X635000Y800100D01*
X635000Y850900D01*
X863600Y762000D02*
X863600Y698500D01*
X863600Y762000D02*
X850900Y774700D01*
X533400Y774700D01*
D15*
X533400Y774700D03*
M02*
