M48
;GenerationSoftware,Autodesk,EAGLE,9.2.2*%
;CreationDate,2019-02-16T04:21:04Z*%
FMAT,2
ICI,OFF
METRIC,TZ,000.000
T7C0.350
T6C1.016
T5C1.118
T4C1.500
T3C1.714
T2C3.000
T1C4.000
%
G90
M71
T1
X64770Y41910
X46990Y59690
X64770Y59690
X82550Y59690
X46990Y41910
X82550Y41910
T2
X92075Y32385
X92075Y88265
X37465Y32385
X37465Y88265
T3
X87630Y59690
X41910Y41910
X59690Y41910
X52070Y41910
X69850Y41910
X77470Y41910
X41910Y59690
X52070Y59690
X87630Y41910
X59690Y59690
X69850Y59690
X77470Y59690
T4
X49530Y64770
X43180Y62230
X49530Y46990
X85090Y64770
X60960Y44450
X67310Y46990
X67310Y64770
X78740Y62230
X78740Y44450
X85090Y46990
X43180Y44450
X60960Y62230
T5
X46990Y77470
X46990Y81280
X46990Y73660
T6
X86360Y69850
X73660Y69850
X86360Y85090
X83820Y85090
X78740Y85090
X76200Y85090
X73660Y85090
X71120Y85090
X68580Y85090
X66040Y85090
X63500Y85090
X58420Y85090
X58420Y69850
X60960Y69850
X63500Y69850
X60960Y85090
X66040Y69850
X68580Y69850
X71120Y69850
X81280Y85090
X76200Y69850
X78740Y69850
X81280Y69850
X83820Y69850
T7
X64770Y78740
X58420Y80010
X53340Y77470
X55880Y63500
M30